HIERARCHY
ROOT Hips
{
	OFFSET -14.64140 90.27770 -84.91600
	CHANNELS 6 Xposition Yposition Zposition Zrotation Xrotation Yrotation
	JOINT Spine
	{
		OFFSET 0.00000 13.20850 -1.60436
		CHANNELS 3 Zrotation Xrotation Yrotation
		JOINT Spine1
		{
			OFFSET 0.00000 8.61716 0.00000
			CHANNELS 3 Zrotation Xrotation Yrotation
			JOINT Spine2
			{
				OFFSET 0.00000 8.61717 0.00000
				CHANNELS 3 Zrotation Xrotation Yrotation
				JOINT Spine3
				{
					OFFSET 0.00000 8.61717 0.00000
					CHANNELS 3 Zrotation Xrotation Yrotation
					JOINT Neck
					{
						OFFSET 0.00000 11.07920 1.10792
						CHANNELS 3 Zrotation Xrotation Yrotation
						JOINT Neck1
						{
							OFFSET 0.00000 7.08032 0.00000
							CHANNELS 3 Zrotation Xrotation Yrotation
							JOINT Head
							{
								OFFSET 0.00000 7.08031 0.00000
								CHANNELS 3 Zrotation Xrotation Yrotation
								End site
								{
									OFFSET 0.00000 0.00000 0.00000
								}
							}
						}
					}
					JOINT RightShoulder
					{
						OFFSET -0.01000 7.91373 5.19711
						CHANNELS 3 Zrotation Xrotation Yrotation
						JOINT RightArm
						{
							OFFSET -18.41580 0.00000 0.00000
							CHANNELS 3 Zrotation Xrotation Yrotation
							JOINT RightForeArm
							{
								OFFSET -29.11090 0.00000 0.00000
								CHANNELS 3 Zrotation Xrotation Yrotation
								JOINT RightHand
								{
									OFFSET -24.65040 0.00000 0.00000
									CHANNELS 3 Zrotation Xrotation Yrotation
									JOINT RightHandThumb1
									{
										OFFSET -5.35114 -0.85590 3.97906
										CHANNELS 3 Zrotation Xrotation Yrotation
										JOINT RightHandThumb2
										{
											OFFSET -4.52789 0.00000 0.00000
											CHANNELS 3 Zrotation Xrotation Yrotation
											JOINT RightHandThumb3
											{
												OFFSET -2.46976 0.00000 0.00000
												CHANNELS 3 Zrotation Xrotation Yrotation
												End site
												{
													OFFSET 0.00000 0.00000 0.00000
												}
											}
										}
									}
									JOINT RightHandIndex1
									{
										OFFSET -14.26970 0.00000 2.88139
										CHANNELS 3 Zrotation Xrotation Yrotation
										JOINT RightHandIndex2
										{
											OFFSET -5.48836 0.00000 0.00000
											CHANNELS 3 Zrotation Xrotation Yrotation
											JOINT RightHandIndex3
											{
												OFFSET -3.01859 0.00000 0.00000
												CHANNELS 3 Zrotation Xrotation Yrotation
												End site
												{
													OFFSET 0.00000 0.00000 0.00000
												}
											}
										}
									}
									JOINT RightHandMiddle1
									{
										OFFSET -14.26970 0.00000 -0.09147
										CHANNELS 3 Zrotation Xrotation Yrotation
										JOINT RightHandMiddle2
										{
											OFFSET -6.17441 0.00000 0.00000
											CHANNELS 3 Zrotation Xrotation Yrotation
											JOINT RightHandMiddle3
											{
												OFFSET -3.56743 0.00000 0.00000
												CHANNELS 3 Zrotation Xrotation Yrotation
												End site
												{
													OFFSET 0.00000 0.00000 0.00000
												}
											}
										}
									}
									JOINT RightHandRing1
									{
										OFFSET -12.69180 0.00000 -3.06433
										CHANNELS 3 Zrotation Xrotation Yrotation
										JOINT RightHandRing2
										{
											OFFSET -5.62556 0.00000 0.00000
											CHANNELS 3 Zrotation Xrotation Yrotation
											JOINT RightHandRing3
											{
												OFFSET -3.56744 0.00000 0.00000
												CHANNELS 3 Zrotation Xrotation Yrotation
												End site
												{
													OFFSET 0.00000 0.00000 0.00000
												}
											}
										}
									}
									JOINT RightHandPinky1
									{
										OFFSET -11.11390 0.00000 -6.03719
										CHANNELS 3 Zrotation Xrotation Yrotation
										JOINT RightHandPinky2
										{
											OFFSET -4.52789 0.00000 0.00000
											CHANNELS 3 Zrotation Xrotation Yrotation
											JOINT RightHandPinky3
											{
												OFFSET -2.46976 0.00000 0.00000
												CHANNELS 3 Zrotation Xrotation Yrotation
												End site
												{
													OFFSET 0.00000 0.00000 0.00000
												}
											}
										}
									}
								}
							}
						}
					}
					JOINT LeftShoulder
					{
						OFFSET 0.01000 7.91373 5.19711
						CHANNELS 3 Zrotation Xrotation Yrotation
						JOINT LeftArm
						{
							OFFSET 18.41580 0.00000 0.00000
							CHANNELS 3 Zrotation Xrotation Yrotation
							JOINT LeftForeArm
							{
								OFFSET 29.11090 0.00000 0.00000
								CHANNELS 3 Zrotation Xrotation Yrotation
								JOINT LeftHand
								{
									OFFSET 24.65040 0.00000 0.00000
									CHANNELS 3 Zrotation Xrotation Yrotation
									JOINT LeftHandThumb1
									{
										OFFSET 5.35114 -0.85590 3.97906
										CHANNELS 3 Zrotation Xrotation Yrotation
										JOINT LeftHandThumb2
										{
											OFFSET 4.52789 0.00000 0.00000
											CHANNELS 3 Zrotation Xrotation Yrotation
											JOINT LeftHandThumb3
											{
												OFFSET 2.46977 0.00000 0.00000
												CHANNELS 3 Zrotation Xrotation Yrotation
												End site
												{
													OFFSET 0.00000 0.00000 0.00000
												}
											}
										}
									}
									JOINT LeftHandIndex1
									{
										OFFSET 14.26970 0.00000 2.88139
										CHANNELS 3 Zrotation Xrotation Yrotation
										JOINT LeftHandIndex2
										{
											OFFSET 5.48836 0.00000 0.00000
											CHANNELS 3 Zrotation Xrotation Yrotation
											JOINT LeftHandIndex3
											{
												OFFSET 3.01859 0.00000 0.00000
												CHANNELS 3 Zrotation Xrotation Yrotation
												End site
												{
													OFFSET 0.00000 0.00000 0.00000
												}
											}
										}
									}
									JOINT LeftHandMiddle1
									{
										OFFSET 14.26970 0.00000 -0.09147
										CHANNELS 3 Zrotation Xrotation Yrotation
										JOINT LeftHandMiddle2
										{
											OFFSET 6.17440 0.00000 0.00000
											CHANNELS 3 Zrotation Xrotation Yrotation
											JOINT LeftHandMiddle3
											{
												OFFSET 3.56744 0.00000 0.00000
												CHANNELS 3 Zrotation Xrotation Yrotation
												End site
												{
													OFFSET 0.00000 0.00000 0.00000
												}
											}
										}
									}
									JOINT LeftHandRing1
									{
										OFFSET 12.69180 0.00000 -3.06433
										CHANNELS 3 Zrotation Xrotation Yrotation
										JOINT LeftHandRing2
										{
											OFFSET 5.62556 0.00000 0.00000
											CHANNELS 3 Zrotation Xrotation Yrotation
											JOINT LeftHandRing3
											{
												OFFSET 3.56744 0.00000 0.00000
												CHANNELS 3 Zrotation Xrotation Yrotation
												End site
												{
													OFFSET 0.00000 0.00000 0.00000
												}
											}
										}
									}
									JOINT LeftHandPinky1
									{
										OFFSET 11.11390 0.00000 -6.03719
										CHANNELS 3 Zrotation Xrotation Yrotation
										JOINT LeftHandPinky2
										{
											OFFSET 4.52789 0.00000 0.00000
											CHANNELS 3 Zrotation Xrotation Yrotation
											JOINT LeftHandPinky3
											{
												OFFSET 2.46976 0.00000 0.00000
												CHANNELS 3 Zrotation Xrotation Yrotation
												End site
												{
													OFFSET 0.00000 0.00000 0.00000
												}
											}
										}
									}
								}
							}
						}
					}
					JOINT pCube4
					{
						OFFSET 0.00000 10.91090 1.10792
						CHANNELS 3 Zrotation Xrotation Yrotation
						End site
						{
							OFFSET 0.00000 0.00000 0.00000
						}
					}
				}
			}
		}
	}
	JOINT RightUpLeg
	{
		OFFSET -9.98441 0.00000 0.00000
		CHANNELS 3 Zrotation Xrotation Yrotation
		JOINT RightLeg
		{
			OFFSET 0.00000 -42.11790 0.00000
			CHANNELS 3 Zrotation Xrotation Yrotation
			JOINT RightFoot
			{
				OFFSET 0.00000 -45.00020 -0.00001
				CHANNELS 3 Zrotation Xrotation Yrotation
				JOINT RightForeFoot
				{
					OFFSET 0.00000 -3.74820 0.00000
					CHANNELS 3 Zrotation Xrotation Yrotation
					JOINT RightToeBase
					{
						OFFSET 0.00000 0.06325 14.43120
						CHANNELS 3 Zrotation Xrotation Yrotation
						End site
						{
							OFFSET 0.00000 0.00000 0.00000
						}
					}
				}
			}
		}
	}
	JOINT LeftUpLeg
	{
		OFFSET 9.98441 0.00000 0.00000
		CHANNELS 3 Zrotation Xrotation Yrotation
		JOINT LeftLeg
		{
			OFFSET 0.00000 -42.11800 0.00000
			CHANNELS 3 Zrotation Xrotation Yrotation
			JOINT LeftFoot
			{
				OFFSET 0.00000 -45.00070 0.00000
				CHANNELS 3 Zrotation Xrotation Yrotation
				JOINT LeftForeFoot
				{
					OFFSET 0.00000 -3.74824 0.00000
					CHANNELS 3 Zrotation Xrotation Yrotation
					JOINT LeftToeBase
					{
						OFFSET 0.00000 0.06325 14.43110
						CHANNELS 3 Zrotation Xrotation Yrotation
						End site
						{
							OFFSET 0.00000 0.00000 0.00000
						}
					}
				}
			}
		}
	}
}
MOTION
Frames: 4
Frame Time: 0.050000
-0.02702310853180355 -0.04758434626675492 -0.03268826412227392 -0.017187697165975523 0.016121806925484095 -0.023817210126257676 -4.804222368934003 9.243282280411497 -0.37427883239814297 -0.8693975407686676 2.9549620757333392 0.4100691257468209 -1.0579799948104782 0.5114550475986539 -0.5750718038475242 -1.1610813836472402 0.22465009631960164 -0.9850373781895853 -0.6257260317205259 6.230949154302049 1.0655404667727466 -0.5050205650951916 -2.2008679582787245 -2.4304494545161797 -0.5576498667415352 -16.76307982303671 -0.09196380914072129 2.869699715237853 0.16876847303548553 -7.106336020564955 52.7851046329412 4.671782017058986 35.61596950370255 6.743983491039416 17.543552507605703 74.26382010668496 27.729844592318575 -0.170408496449573 -9.521504799689419 4.5587115556565 -0.14817047798202043 -1.558654949639208 -0.04140868797247292 -0.013565921095650718 -56.25593795023993 -0.018831397396537795 -0.03569580349833269 -56.27247043931091 -38.77069903219724 -0.010286748780931674 0.03657318837185952 0.020344143509726985 0.048066086783518196 -0.04561778006986936 -0.00012995214126867104 -0.0019238757923649094 0.0013151093178412586 -36.676820166590716 -0.03627192445558764 0.03731682909787759 0.0069754883401344624 -0.011238686022358235 -0.021807338164813273 0.00591587452544355 -0.019442175144892583 -0.018791458627131004 -19.72922660122599 -0.0005455070914945685 0.02613309962406309 0.037703789785696905 -0.022010857278963136 -0.025484164243028174 0.0069499357010582114 0.023926621490767904 0.014019863184438588 24.00996123210876 -0.03106701819872035 -0.030896318404302153 28.865587247424735 0.029584477264569992 0.0259041025788397 28.898278014259123 -0.037543628500233225 -0.042564228291781275 -2.210663018544015 0.08688051018018811 7.0230373717423635 -50.779757058749965 19.807216893569404 -29.184491137701862 -24.34846988494878 14.967953735259728 -82.19576099256089 -25.674880719398182 -7.962811700538571 6.278941260846692 -0.4261986576374693 0.0475599759897504 -8.15704207979494 0.03473162318086846 -0.01918240310601642 44.533587220859395 -0.017349840278397845 -0.011205744678083343 44.54460073476588 12.436985759311462 -0.02341941096855596 -0.028196220041084036 -0.014033298894291548 0.010624115037246184 0.0016476660432335243 -0.03692053732401317 0.039175363673028755 0.010852883901751752 11.083240090828475 -0.0008771117501118712 0.004107687020561992 -0.021910094925900347 -0.0034397287877782094 0.033018883917950784 -0.02954778131675865 -0.04104136524301628 0.015570813040590993 4.8165311460146745 0.010592363392893834 0.0136314001658003 0.027634086121330923 -0.021293645330811208 -0.036364990251591796 0.03266910219613609 -0.013298277563802637 0.014083684212505594 -5.641008897476067 0.016210258661669415 -0.029270502391744155 -6.7214444742588615 0.0067117346803558815 0.03156940671319744 -6.742773410885977 -0.00150166443101764 0.027256113253995844 0.007886008833808661 0.019498637014572624 0.01722649740226271 8.040512704758589 3.4910859031706196 -19.17635209169393 0.03410625774307195 10.441308494852551 -0.022296232295236026 -5.594240923221 -15.637346669107822 3.2092360012023833 0.02795778261100207 0.01021709541034006 -0.032035462115838104 -0.03079458281499744 4.660411212210364 0.0015827236628159003 12.453697639710935 -8.251847193740403 6.848313505743402 -0.011778855042842968 46.350898311520446 0.028733702599225596 -4.298903197708042 -14.724723327671374 -3.7932262276921755 0.01696118897317013 0.014575243225677147 0.007483470482914367 0.00786621061650252 -10.705718639234714 -0.0030830785486578743 
0.03695146601835824 -0.04771818886190024 -0.021501083122467984 0.03529223721096936 -0.03076357422924087 0.026628548935649466 -4.895978417549856 9.239101045371216 -0.353846743209479 -0.8176778788069763 2.963499057385432 0.4118083113544705 -1.0373890590961887 0.39527056597669324 -0.6140658111452963 -1.1087919555214762 0.1577425158033572 -0.9665710014547745 -0.685652220728629 6.124937387664905 1.140915333261677 -0.5181601696787459 -2.1247284772765753 -2.1578311462602477 -0.6058255117227745 -16.713885735555227 -0.0947847174650245 3.1971024970955093 0.09936985603564678 -7.147385253564672 50.555481316099204 4.228535270284948 33.10534192202752 2.0095160890664796 17.145696212362903 71.2296883254274 28.672138670422758 -0.16092404167450278 -8.846963528889667 4.501894918893291 -0.09478636411253495 -1.6314144503362764 0.016233851469798864 -0.031041233819394266 -56.23599848474119 -0.03585901120033909 0.030022510667266574 -56.2444328478065 -38.807135717971796 -0.0010376263698190506 0.0395930264996289 -0.02976964136028895 -0.0427974703071065 0.0199517687300833 0.008425201925520634 -0.037768362127322354 -0.022362892541403497 -36.66716323339111 0.00843074428789116 0.002277754840531206 -0.046698249563053795 0.004248603117673487 0.04937864675711457 0.0022924480138685945 0.042086731414989025 0.041649845119094364 -19.731045131271244 0.018683343871894634 -0.02563863405510369 -0.0290499419370113 -0.046711516000626944 -0.012128494983840384 0.03480278595879527 -0.0029356482530850975 -0.02427610599150636 24.102658710811728 0.02308979427830236 0.046810330203014054 28.88217652902611 0.0057804945211984565 -0.013350197886987334 28.874019016971523 0.0026291092415592333 -0.028191972434416228 -2.2334652849840806 0.0834080919691576 7.186240286474038 -49.22997817296437 19.706469294903943 -28.851657523381345 -19.70201901896437 13.813697670109114 -80.81172164852215 -26.430185014110428 -8.429820541037797 6.710921012090302 -0.4308718926014378 0.10085882050348077 -8.083803146437495 -0.014532147433304462 0.02435854857446058 44.51959602593253 -0.04155504290325819 0.04118972370745072 44.51834583266576 12.459448673669057 -0.02812313299724141 -0.007816497967558237 -0.02386882639862707 -0.0018056627786097721 0.04983735172468182 0.026602255207980492 -0.034874917740109056 -0.01877465867822686 11.139963143316765 0.021319982197364987 0.025320818789731046 0.005103676355551413 -0.03847440813459942 0.011662600392709848 -0.02480502058244617 0.02468638906126657 -0.008008779732244073 4.790550877154097 0.033339924542657474 0.022190058403547458 0.025248877745562837 -0.0017751583653917466 -0.029735570406278597 -0.02644700376422869 -0.02589610589614431 -0.008796657447443481 -5.618149003975689 -0.03325571792052898 0.049488437791607554 -6.705078452877641 -0.04243471690199213 0.03988575359102054 -6.7038585571237945 0.03846260802955534 -0.032072208477605564 -0.04067327436265551 -0.021760555057289126 0.013442886279125882 8.080451343916582 3.5189067037536716 -19.225128942580206 -0.045241977769176676 10.370726397485333 0.04232270029886837 -5.63953465978705 -15.613810646071673 3.2270588424641073 -0.030555103152272403 0.02001521370979662 0.031919444640126755 -0.0377743295533856 4.713096597007614 -0.022609850971906823 12.445414843237563 -8.252166351570862 6.889663257669557 0.043283274563642664 46.36788795934398 -0.00016122852211811547 -4.314137651217842 -14.777391170370324 -3.841421023957051 0.0077170252466610915 0.00904248942763851 -0.03491500931517914 0.009197061548370166 -10.711511385320449 0.044753654064176585 
0.020857969472460047 0.04790954181488088 0.02205540413403461 0.007838207494308027 0.004193018749490971 -0.007153204609150934 -4.814224992845558 9.174922434920568 -0.40698972122752863 -0.7699608702925722 2.905511301351188 0.4583867009959626 -1.012800533317809 0.3947423152326254 -0.7582128704046258 -1.0731250628960758 0.19085668277999795 -0.9882522490716679 -0.7224167129231805 5.949842152342827 1.1458324595304388 -0.4736271732400053 -2.133161205962907 -2.1642052507165173 -0.5737812445681901 -16.55903757821361 -0.09279295964665349 3.63155453352702 -0.0494099479594107 -7.18858393324527 48.97387597099859 4.167757076046675 30.30814796877637 -0.941998502675058 16.860765632905462 68.20896731050051 29.875186502364187 -0.11184992324110571 -8.663820575867552 4.502598103856082 -0.14159005381635176 -1.5550724157426445 -0.00428987367819254 -0.00893702364814935 -56.252911468030504 -0.005036853999898858 -0.0013476892447173772 -56.268047772380285 -38.726102617453584 -0.015631238742769248 0.018688894229426028 -0.035366360176554826 -0.03252665998063156 -0.017229142467545876 0.034839310201235096 0.02513106118499205 0.018276084826676576 -36.73672058507792 0.030204738274828558 0.0056287136566097965 -0.016604047371935597 -0.018737010578023554 -0.004462995795595931 -0.008584454993772854 0.0008159931371148724 -0.017574056755373393 -19.7595210768986 0.04104112513799607 0.04787844274748487 -0.002607286283341349 0.044889045264301854 0.025450179336540507 0.0003741373730325554 0.004167628683220104 -0.031717032243699365 24.03970460115969 -0.04460885671321782 0.020005275962294324 28.828990845694534 -0.03385767555552945 -0.038116361621270654 28.855261054169414 -0.02569471464469555 -0.0388395111938257 -2.371187157043663 0.10065629377167451 7.22833358757569 -47.62605704360888 20.35253774543856 -28.792492364815683 -14.571321133372866 11.684139609092997 -79.41399750921197 -27.53049127998557 -9.093822403338255 7.388279528021405 -0.45875667464262526 0.05449611288920394 -8.077389432341532 0.04366522693445865 -0.046182469466011136 44.57607859982288 0.02513644565060379 -0.013561674628168227 44.61145302257171 12.438477516483351 0.03714611921789807 0.008767125010386815 0.020247802281643072 -0.03689161774900083 0.03134908107939001 0.016487469885064825 -0.01078515577211491 0.048912965050589875 11.065054190202451 0.02094259995702276 -0.025986119465882866 -0.016565547451596843 0.04441209922462916 -0.0281184574891032 -0.030812040842898472 0.010711719846823531 -0.02524436397296569 4.792344465129236 0.044550255321347966 0.03073644031308543 0.007341822155421445 0.04068329331874242 0.007529703776249925 0.03176760504591867 -0.04680617949019864 0.026041463753634836 -5.5866565373153625 -0.0256151711020563 -0.04655536372935996 -6.681848912907114 -0.024812742276773634 0.012643469624353037 -6.712391987973235 0.00700500844478091 0.015401089884303009 -0.01971575332584533 -0.01432789484928205 0.04477914379211639 8.031371186221616 3.5173793115645986 -19.172237393876742 -0.01993826577336274 10.400620843519961 0.05349571722263659 -5.6564878105360625 -15.656920541758064 3.192977347933132 -0.03323581278708908 0.010988324893449839 -0.0470185682869421 3.2537433924278945e-05 4.743549051252728 0.01857601870251265 12.455156037496359 -8.252763486799948 6.887915886269695 0.015373833953528565 46.35056995525959 0.049822905970615165 -4.333809676030109 -14.722183137267837 -3.8336723546846927 0.013924752262260353 0.03955863032867276 0.003005178295855784 -0.038769398685576564 -10.698325091620132 -0.006748623861894397 
0.012248045500555926 -0.02788787260572151 0.028065889128931893 -0.005019152343173287 -0.00877200951484959 0.023943826055064173 -4.761110815795938 9.053282992265983 -0.38041503437359814 -0.7901709532598291 2.857482101590408 0.4042364442075933 -0.9441824296419795 0.3887594402022636 -0.9951179395537755 -1.0003690764803952 0.12185371963149372 -0.9738714469292361 -0.6964082490482605 5.865796170032158 0.9924792683669987 -0.5087938009029712 -2.0422532807306175 -2.3431030490968183 -0.5388059820396491 -16.517431301097716 -0.05547829587065946 3.95901288717304 -0.21022708002987223 -7.231161384768845 47.811088271329695 4.143698211496817 28.822213833455777 -1.9788841740898147 16.885460340605874 66.65890012926322 30.895930318549233 -0.0873934862063286 -8.756885526481986 4.548292661594107 -0.14172359180349275 -1.5991656888206407 0.02941585241516445 0.018238428993757837 -56.26303258915071 -0.029092182089461537 0.0017909547313484796 -56.27379327612978 -38.7778978456079 0.047960095740849196 -0.047789791438815565 0.043159495215122926 -0.016828800429024814 -0.010309279680970168 0.01392535545516987 -0.02904159252665214 0.034640403164754495 -36.719872316078806 0.015268687073642442 -0.013724504433642695 -0.015010996516518016 0.03383880634293939 0.04847395415759686 0.02535001414721934 0.022553912451702605 -0.007527941417716228 -19.763704085326445 -0.022183129029913207 -0.0050076531444072 -0.0044125850265950535 0.03146704961237202 0.015562006052855423 0.004873754064117385 0.004455857040298863 -0.001230924706523799 24.03857940603603 0.021179562287984205 -0.044915717781839996 28.85705018147704 -0.030780300963975583 0.0092889732983584 28.861432733997468 0.015107758299516603 0.009236993075978446 -2.4132616407942002 0.07770315828628249 7.1543160127991285 -46.32985770538093 21.314444619752685 -29.469093309541993 -10.327831440908788 9.473485413231003 -78.83086781238244 -28.499848135636206 -9.66990641199116 7.986078027074576 -0.5212598323402918 0.08228337377591968 -8.133464897477126 -0.007054427010334101 0.03030852754243279 44.52963599946909 0.01912492122563394 -0.03786457785127476 44.555901863032524 12.480032843672547 -0.028630828577172373 -0.003430429956292884 0.0492802443911453 -0.041809475406123724 -0.02253852702492595 -0.0003450318913066662 0.020530423086733227 0.03132020726258167 11.130689611623415 0.038079162572466504 0.015892041234107982 0.016991025650426005 -0.013653769542584477 0.03229892467042952 0.009755543274669355 -0.003680432239294978 -0.0293830352724508 4.743434608974988 -0.009976827285379476 0.03252135809064 0.004949398696580364 0.015531191297495202 -0.027298595955318458 0.04861566630818107 -0.040246453906969834 -0.04409253736134268 -5.607993628373248 0.0076320162089786115 -0.036210435011333884 -6.745738066515655 0.03229767278839717 0.03248685792085942 -6.722296615186467 -0.030842364445588827 -0.04022810761775522 -0.029066075462907077 0.03827946349603724 0.0007405293179990282 8.061009348782449 3.5208780065687675 -19.176089385263417 -0.04743742951058396 10.390583987423133 -0.023248876835078914 -5.600097247784201 -15.64868622506721 3.214384053807842 -0.03459803205774837 -0.03395183636464491 -0.04559608053841473 0.005469159908437719 4.740704412484217 0.029485366717686718 12.435282200712198 -8.22969909200726 6.871234811730066 -0.0015531868359056566 46.35422779079498 -0.04780370723686689 -4.360378653728886 -14.740018334950339 -3.7910491453969493 -0.013868349700150575 -0.02200105673121879 0.029035778474107977 -0.049898183080066175 -10.699063336716568 -0.03625378784815952 
